<mxfile host="app.diagrams.net" modified="2024-01-24T14:37:39.170Z" agent="Mozilla/5.0 (Windows NT 10.0; Win64; x64) AppleWebKit/537.36 (KHTML, like Gecko) Chrome/118.0.0.0 YaBrowser/23.11.0.0 Safari/537.36" etag="a6eSn1PVeC20P74X1TA9" version="23.0.1" type="device">
  <diagram name="Страница — 1" id="UMaZ8_dq13IUwoKwti8R">
    <mxGraphModel dx="1386" dy="783" grid="1" gridSize="10" guides="1" tooltips="1" connect="1" arrows="1" fold="1" page="1" pageScale="1" pageWidth="1169" pageHeight="827" math="0" shadow="0">
      <root>
        <mxCell id="0" />
        <mxCell id="1" parent="0" />
        <mxCell id="rCq4L82b_pifxHRvqZzu-3" value="" style="edgeStyle=orthogonalEdgeStyle;rounded=0;orthogonalLoop=1;jettySize=auto;html=1;" edge="1" parent="1" source="rCq4L82b_pifxHRvqZzu-1" target="rCq4L82b_pifxHRvqZzu-2">
          <mxGeometry relative="1" as="geometry" />
        </mxCell>
        <mxCell id="rCq4L82b_pifxHRvqZzu-1" value="Старт" style="rounded=0;whiteSpace=wrap;html=1;" vertex="1" parent="1">
          <mxGeometry x="360" y="40" width="160" height="50" as="geometry" />
        </mxCell>
        <mxCell id="rCq4L82b_pifxHRvqZzu-5" value="" style="edgeStyle=orthogonalEdgeStyle;rounded=0;orthogonalLoop=1;jettySize=auto;html=1;" edge="1" parent="1" source="rCq4L82b_pifxHRvqZzu-2" target="rCq4L82b_pifxHRvqZzu-4">
          <mxGeometry relative="1" as="geometry" />
        </mxCell>
        <mxCell id="rCq4L82b_pifxHRvqZzu-2" value="&lt;span style=&quot;background-color: rgb(255, 255, 255);&quot;&gt;Введите массив&lt;br&gt;&lt;/span&gt;&lt;div style=&quot;font-family: Consolas, &amp;quot;Courier New&amp;quot;, monospace; font-size: 14px; line-height: 19px;&quot;&gt;&lt;span style=&quot;background-color: rgb(255, 255, 255);&quot;&gt;foreach (string str in arr)&lt;/span&gt;&lt;/div&gt;&lt;div style=&quot;font-family: Consolas, &amp;quot;Courier New&amp;quot;, monospace; font-size: 14px; line-height: 19px;&quot;&gt;&lt;span style=&quot;background-color: rgb(255, 255, 255);&quot;&gt;index = 0&lt;/span&gt;&lt;/div&gt;" style="shape=parallelogram;perimeter=parallelogramPerimeter;whiteSpace=wrap;html=1;fixedSize=1;" vertex="1" parent="1">
          <mxGeometry x="305" y="160" width="270" height="80" as="geometry" />
        </mxCell>
        <mxCell id="rCq4L82b_pifxHRvqZzu-7" style="edgeStyle=orthogonalEdgeStyle;rounded=0;orthogonalLoop=1;jettySize=auto;html=1;entryX=0.5;entryY=0;entryDx=0;entryDy=0;" edge="1" parent="1" source="rCq4L82b_pifxHRvqZzu-4" target="rCq4L82b_pifxHRvqZzu-6">
          <mxGeometry relative="1" as="geometry" />
        </mxCell>
        <mxCell id="rCq4L82b_pifxHRvqZzu-10" style="edgeStyle=orthogonalEdgeStyle;rounded=0;orthogonalLoop=1;jettySize=auto;html=1;entryX=0.5;entryY=0;entryDx=0;entryDy=0;" edge="1" parent="1" source="rCq4L82b_pifxHRvqZzu-4" target="rCq4L82b_pifxHRvqZzu-8">
          <mxGeometry relative="1" as="geometry" />
        </mxCell>
        <mxCell id="rCq4L82b_pifxHRvqZzu-4" value="&lt;span style=&quot;background-color: rgb(255, 255, 255);&quot;&gt;if str.Length &amp;lt;= 3&lt;/span&gt;" style="rhombus;whiteSpace=wrap;html=1;" vertex="1" parent="1">
          <mxGeometry x="350" y="290" width="180" height="80" as="geometry" />
        </mxCell>
        <mxCell id="rCq4L82b_pifxHRvqZzu-9" style="edgeStyle=orthogonalEdgeStyle;rounded=0;orthogonalLoop=1;jettySize=auto;html=1;entryX=1;entryY=0.5;entryDx=0;entryDy=0;" edge="1" parent="1" source="rCq4L82b_pifxHRvqZzu-6" target="rCq4L82b_pifxHRvqZzu-8">
          <mxGeometry relative="1" as="geometry" />
        </mxCell>
        <mxCell id="rCq4L82b_pifxHRvqZzu-20" value="" style="edgeStyle=orthogonalEdgeStyle;rounded=0;orthogonalLoop=1;jettySize=auto;html=1;" edge="1" parent="1" source="rCq4L82b_pifxHRvqZzu-6" target="rCq4L82b_pifxHRvqZzu-18">
          <mxGeometry relative="1" as="geometry" />
        </mxCell>
        <mxCell id="rCq4L82b_pifxHRvqZzu-6" value="&lt;div style=&quot;font-family: Consolas, &amp;quot;Courier New&amp;quot;, monospace; font-size: 14px; line-height: 19px;&quot;&gt;&lt;span style=&quot;background-color: rgb(255, 255, 255);&quot;&gt;shortStringsArray[index++] = str;&lt;/span&gt;&lt;/div&gt;&lt;div style=&quot;font-family: Consolas, &amp;quot;Courier New&amp;quot;, monospace; font-size: 14px; line-height: 19px;&quot;&gt;&lt;br&gt;&lt;/div&gt;" style="rounded=0;whiteSpace=wrap;html=1;" vertex="1" parent="1">
          <mxGeometry x="575" y="430" width="305" height="60" as="geometry" />
        </mxCell>
        <mxCell id="rCq4L82b_pifxHRvqZzu-15" style="edgeStyle=orthogonalEdgeStyle;rounded=0;orthogonalLoop=1;jettySize=auto;html=1;entryX=0;entryY=0.5;entryDx=0;entryDy=0;" edge="1" parent="1" source="rCq4L82b_pifxHRvqZzu-8" target="rCq4L82b_pifxHRvqZzu-4">
          <mxGeometry relative="1" as="geometry">
            <Array as="points">
              <mxPoint x="330" y="460" />
              <mxPoint x="330" y="330" />
            </Array>
          </mxGeometry>
        </mxCell>
        <mxCell id="rCq4L82b_pifxHRvqZzu-8" value="index++" style="rounded=0;whiteSpace=wrap;html=1;" vertex="1" parent="1">
          <mxGeometry x="380" y="430" width="120" height="60" as="geometry" />
        </mxCell>
        <mxCell id="rCq4L82b_pifxHRvqZzu-16" value="yes" style="text;html=1;align=center;verticalAlign=middle;resizable=0;points=[];autosize=1;strokeColor=none;fillColor=none;" vertex="1" parent="1">
          <mxGeometry x="620" y="298" width="40" height="30" as="geometry" />
        </mxCell>
        <mxCell id="rCq4L82b_pifxHRvqZzu-17" value="no" style="text;html=1;align=center;verticalAlign=middle;resizable=0;points=[];autosize=1;strokeColor=none;fillColor=none;" vertex="1" parent="1">
          <mxGeometry x="430" y="378" width="40" height="30" as="geometry" />
        </mxCell>
        <mxCell id="rCq4L82b_pifxHRvqZzu-21" value="" style="edgeStyle=orthogonalEdgeStyle;rounded=0;orthogonalLoop=1;jettySize=auto;html=1;" edge="1" parent="1" source="rCq4L82b_pifxHRvqZzu-18" target="rCq4L82b_pifxHRvqZzu-19">
          <mxGeometry relative="1" as="geometry" />
        </mxCell>
        <mxCell id="rCq4L82b_pifxHRvqZzu-18" value="&lt;div style=&quot;font-family: Consolas, &amp;quot;Courier New&amp;quot;, monospace; font-size: 14px; line-height: 19px;&quot;&gt;&lt;div style=&quot;&quot;&gt;&lt;span style=&quot;background-color: rgb(255, 255, 255);&quot;&gt;foreach (string shortString in shortStringsArray)&lt;/span&gt;&lt;/div&gt;&lt;div style=&quot;&quot;&gt;&lt;span style=&quot;background-color: rgb(255, 255, 255);&quot;&gt;{&lt;/span&gt;&lt;/div&gt;&lt;/div&gt;" style="rounded=0;whiteSpace=wrap;html=1;" vertex="1" parent="1">
          <mxGeometry x="612.5" y="550" width="230" height="90" as="geometry" />
        </mxCell>
        <mxCell id="rCq4L82b_pifxHRvqZzu-19" value="Конец" style="shape=parallelogram;perimeter=parallelogramPerimeter;whiteSpace=wrap;html=1;fixedSize=1;" vertex="1" parent="1">
          <mxGeometry x="668" y="680" width="120" height="60" as="geometry" />
        </mxCell>
      </root>
    </mxGraphModel>
  </diagram>
</mxfile>
